<svg xmlns="http://www.w3.org/2000/svg" viewBox="0 0 1024 1024" role="img" aria-labelledby="title desc">
  <title id="title">광고 증빙 요청 시스템 아이콘</title>
  <desc id="desc">광고 송출, 파일 전달, 증빙 확인을 상징하는 제어 앱 아이콘</desc>
  <defs>
    <linearGradient id="bg" x1="0%" x2="100%" y1="0%" y2="100%">
      <stop offset="0%" stop-color="#2d4856" />
      <stop offset="48%" stop-color="#7d4f32" />
      <stop offset="100%" stop-color="#d38b52" />
    </linearGradient>
    <linearGradient id="paper" x1="0%" x2="100%" y1="0%" y2="100%">
      <stop offset="0%" stop-color="#fffaf4" />
      <stop offset="100%" stop-color="#f1ddc8" />
    </linearGradient>
    <linearGradient id="screen" x1="0%" x2="100%" y1="0%" y2="100%">
      <stop offset="0%" stop-color="#daf3f0" />
      <stop offset="100%" stop-color="#98c7be" />
    </linearGradient>
    <filter id="shadow" x="-20%" y="-20%" width="140%" height="140%">
      <feDropShadow dx="0" dy="28" stdDeviation="34" flood-color="#1d130d" flood-opacity="0.25" />
    </filter>
  </defs>

  <rect width="1024" height="1024" rx="248" fill="url(#bg)" />
  <path d="M140 208c84-88 195-132 332-132h96c116 0 212 36 290 110c-58-26-128-34-210-24c-38 4-72 10-102 16c-103 19-190 24-260 14c-59-8-108-3-146 16Z" fill="#fff" opacity=".08" />

  <g filter="url(#shadow)">
    <rect x="164" y="228" width="472" height="352" rx="78" fill="#1e1a17" opacity=".16" />
    <rect x="186" y="208" width="472" height="352" rx="78" fill="url(#screen)" />
    <rect x="220" y="244" width="404" height="244" rx="42" fill="#21404b" />
    <path d="M364 304l138 92l-138 92z" fill="#f7f0e5" />
    <rect x="322" y="524" width="202" height="20" rx="10" fill="#f3e6d4" opacity=".88" />
  </g>

  <g filter="url(#shadow)">
    <path d="M570 252h140l150 152v272c0 58-48 106-106 106H570c-58 0-106-48-106-106V358c0-58 48-106 106-106Z" fill="url(#paper)" />
    <path d="M710 252v112c0 34 28 62 62 62h88" fill="#f5c39d" />
    <path d="M564 486h208" stroke="#b06e4a" stroke-linecap="round" stroke-width="36" />
    <path d="M564 570h208" stroke="#d09a73" stroke-linecap="round" stroke-width="30" />
    <path d="M564 642h128" stroke="#d09a73" stroke-linecap="round" stroke-width="30" />
    <path d="M598 384l48 50l96-116" fill="none" stroke="#2f6c4a" stroke-linecap="round" stroke-linejoin="round" stroke-width="42" />
  </g>

  <circle cx="804" cy="786" r="88" fill="#f8efe2" opacity=".16" />
  <path d="M688 832c58 24 118 24 180 0" stroke="#fff4ea" stroke-linecap="round" stroke-width="20" opacity=".45" />
</svg>
